<svg xmlns="http://www.w3.org/2000/svg" viewBox="0 0 162 68" width="162" height="68"><path d="M0,0h162v68H0V0Z" fill="none"/><path d="M43.818,51.253c0-5.35-2.124-8.673-6.798-8.673-3.853,0-6.798,2.407-8.199,6.699h-.335c-.388-3.852-2.557-6.699-6.701-6.699s-6.991,2.556-8.288,6.937h-.343c-.865-2.913-2.46-5.395-5.158-6.311-.73-.246-1.535-.387-2.43-.387H.596v5.484h6.298v19.045h6.701v-12.287c.015-.782.104-1.49.253-2.131.708-3.144,2.795-4.709,4.957-4.709s3.28.961,3.28,4.866v14.262h6.701v-12.578c.484-4.866,2.989-6.557,5.352-6.557s2.944,1.639,2.944,4.866v7.973c0,3.83,2.475,6.483,6.745,6.699v-16.504l-.007.007ZM81.369,62.042l12.656-13.658v-5.231h-19.409v5.015h12.827l-13.327,14.262v4.873h20.199v-5.261h-12.947,0ZM112.726,58.399v-3.726c-.656.604-1.453.842-3.19,1.371-3.287.916-4.979,1.773-4.979,3.949,0,1.93,1.357,2.995,2.952,2.995,2.415,0,4.733-1.788,5.217-4.59M112.606,62.519c-1.125,3.204-4.107,4.836-7.588,4.836-4.636,0-7.297-2.176-7.297-6.184,0-4.59,3.622-6.475,8.653-7.488,4.159-.872,5.993-1.304,6.186-1.833v-.529c0-2.317-1.163-3.718-4.107-3.718s-4.733,1.736-5.508,3.524l-5.024-2.705c1.737-3.577,5.993-5.797,11.21-5.797,6.812,0,10.003,3.189,10.003,9.083v7.824c0,5.022.581,7.094,1.401,7.764h-6.716c-.581-.529-1.066-2.019-1.207-4.769M140.408,43.139c-4.152,0-7.513,2.63-8.154,7.6h-.201l.246-4.188v-3.465h-8.549l-1.848,5.037h4.77v19.231h6.179v-8.941c0-5.462.656-7.876,6.104-7.876h1.774v-7.399h-.32ZM62.571,58.384v-3.733c-.656.604-1.453.842-3.198,1.371-3.294.916-4.986,1.773-4.986,3.957,0,1.937,1.357,3.003,2.952,3.003,2.422,0,4.74-1.788,5.225-4.597M62.452,62.512c-1.125,3.204-4.114,4.843-7.603,4.843-4.644,0-7.312-2.183-7.312-6.199,0-4.597,3.63-6.483,8.661-7.503,4.159-.872,6-1.304,6.194-1.84v-.529c0-2.325-1.163-3.726-4.114-3.726s-4.74,1.744-5.516,3.532l-5.031-2.712c1.744-3.584,6-5.804,11.232-5.804,6.827,0,10.017,3.197,10.017,9.098v7.839c0,5.03.581,7.101,1.401,7.779h-6.73c-.581-.529-1.066-2.019-1.207-4.776M142.1,62.825l3.831-3.271c1.357,2.101,3.317,3.368,5.799,3.368,1.729,0,3.086-.745,3.086-2.153,0-1.87-2.43-2.668-5.94-3.882-2.996-1.073-5.896-2.854-5.896-6.781s3.458-7.012,9.309-7.012c4.584,0,7.155,1.684,8.885,4.024l-3.883,3.368c-.611-1.17-2.154-2.898-4.726-2.898-1.871,0-3.041.931-3.041,2.153,0,1.87,2.482,2.615,5.381,3.644,3.317,1.17,6.499,2.712,6.499,7.108s-3.697,7.012-9.585,7.012c-4.025,0-7.856-1.587-9.727-4.672" fill="#171c8f"/><path d="M50.117,9.042c0-2.742.917-3.748,3.466-3.748,1.155,0,2.162.194,2.981.432V.824c-.917-.238-2.065-.574-4.524-.574-5.434,0-8.229,3.219-8.229,8.465v3.748h-4.263l-1.893,5.193h6.157v18.896h6.298v-18.896h5.799v-5.193h-5.799v-3.413l.007-.007ZM74.802,24.049c0-4.769-1.684-7.399-5.053-7.399s-5.143,2.63-5.143,7.354,1.64,7.63,4.957,7.63,5.24-2.72,5.24-7.585M57.831,24.191c0-7.056,4.398-12.339,12.015-12.339s11.642,4.769,11.642,12.108-4.398,12.525-11.97,12.525-11.695-4.813-11.695-12.294M104.631,12.448h6.298l5.381,17.51h.291l5.285-17.54h6.403l-8.676,24.09-6.224-.022-8.758-24.037h0ZM101.359,12.5c-4.114,0-7.439,2.6-8.08,7.526h-.201l.246-4.143v-3.435h-8.467l-1.826,4.985h4.726v19.045h6.119v-8.859c0-5.41.648-7.801,6.045-7.801h1.759v-7.324h-.313l-.007.007ZM125.695,36.507h6.365l8.773-24.09h-6.365l-8.773,24.09ZM142.1,32.133l3.831-3.271c1.357,2.101,3.317,3.368,5.799,3.368,1.729,0,3.086-.745,3.086-2.153,0-1.87-2.43-2.668-5.94-3.882-2.996-1.073-5.896-2.854-5.896-6.781s3.458-7.012,9.309-7.012c4.584,0,7.155,1.684,8.885,4.024l-3.883,3.368c-.611-1.17-2.154-2.898-4.726-2.898-1.871,0-3.041.931-3.041,2.153,0,1.87,2.482,2.615,5.381,3.644,3.317,1.17,6.499,2.712,6.499,7.108s-3.697,7.012-9.585,7.012c-4.025,0-7.856-1.587-9.727-4.672" fill="#0072ce"/></svg>